<?xml version="1.0" encoding="utf-8"?>
<!-- Generator: Adobe Illustrator 16.0.0, SVG Export Plug-In . SVG Version: 6.00 Build 0)  -->
<!DOCTYPE svg PUBLIC "-//W3C//DTD SVG 1.1//EN" "http://www.w3.org/Graphics/SVG/1.1/DTD/svg11.dtd">
<svg version="1.1" id="Layer_1" xmlns="http://www.w3.org/2000/svg" xmlns:xlink="http://www.w3.org/1999/xlink" x="0px" y="0px"
	 width="1000px" height="250px" viewBox="-26.652 -43.776 1000 250" enable-background="new -26.652 -43.776 1000 250"
	 xml:space="preserve">
<g>
	<g>
		<path d="M160.832,8.819c4.124,0,8.248,0,12.37,0c0.08,0.214,0.162,0.429,0.244,0.643c5.698,15.057,5.724,30.125-0.003,45.174
			c-2.958,7.771-7.419,14.602-13.146,20.613c-0.526,0.552-1.053,0.99-0.19,1.755c4.338,3.854,8.015,8.263,10.927,13.295
			c0.409,0.706,0.888,1.018,1.763,0.872c4.761-0.79,9.349-0.244,13.693,1.947c0,1.451,0,2.902,0,4.353
			c-3.513-2.201-7.347-3.042-11.463-2.761c-1.391,0.097-1.499,0.205-0.99,1.452c0.2,0.495,0.448,0.972,0.605,1.48
			c0.271,0.88,0.831,1.146,1.727,1.085c2.375-0.159,4.641,0.333,6.713,1.499c1.186,0.671,2.272,1.517,3.408,2.283
			c0,1.373,0,2.748,0,4.124c-0.384-0.471-0.755-0.955-1.158-1.413c-2.143-2.441-4.802-3.821-8.088-3.943
			c-0.845-0.033-1.229,0.14-0.947,1.092c1.962,6.619,2.71,13.37,2.15,20.261c-0.091,1.119,0.179,1.317,1.251,1.021
			c2.923-0.817,5.165-2.556,6.79-5.107c0,1.221,0,2.443,0,3.664c-1.819,1.616-3.8,3.099-6.217,3.477
			c-1.979,0.308-2.553,1.332-2.716,3.074c-0.125,1.325-0.006,1.556,1.36,1.44c2.765-0.234,5.243-1.272,7.573-2.722
			c0,1.298,0,2.597,0,3.894c-3.565,2.018-7.562,2.282-11.492,2.648c-2.573,0.241-5.188,0.067-7.782,0.05
			c-1.292-0.009-1.467-0.212-0.994-1.423c0.398-1.026,0.129-1.582-0.793-2.134c-3.353-2.01-5.886-4.82-7.747-8.243
			c-0.169-0.31-0.367-0.608-0.568-0.941c-0.164,0.165-0.25,0.208-0.262,0.27c-0.058,0.261-0.109,0.525-0.14,0.789
			c-0.424,3.758-1.539,7.306-3.282,10.656c-0.183,0.35-0.506,0.876-0.781,0.889c-1.836,0.079-3.681,0.042-5.758,0.042
			c0.285-0.592,0.432-0.966,0.635-1.307c4.299-7.244,4.981-14.943,2.746-22.947c-1.083-3.881-3.127-7.271-5.893-10.218
			c-0.579-0.618-0.955-0.677-1.676-0.062c-1.335,1.142-2.834,2.091-4.291,3.136c0.403,0.486,0.912,1.103,1.423,1.716
			c7.06,8.452,6.549,20.608-0.276,28.165c-1.422,1.574-4.66,2.258-6.829,1.307c0.389-0.272,0.748-0.479,1.053-0.746
			c1.144-1.004,2.373-1.934,3.38-3.062c3.491-3.916,4.671-8.61,4.121-13.725c-0.563-5.214-3.002-9.396-7.456-12.285
			c-0.436-0.282-1.066-0.457-1.572-0.395c-2.385,0.289-4.586-0.322-6.482-1.63c-1.111-0.77-2.193-1.296-3.466-1.146
			c-1.77,0.207-3.626,0.341-5.248,0.997c-6.386,2.576-10.321,7.316-11.141,14.197c-0.842,7.065,1.572,12.907,7.5,17.107
			c0.295,0.208,0.574,0.439,0.865,0.657c-0.025,0.116-0.049,0.231-0.073,0.347c-1.194,0-2.393-0.054-3.583,0.016
			c-1.093,0.066-1.966-0.273-2.592-1.141c-1.223-1.697-2.632-3.309-3.562-5.158c-5.53-11.013-0.641-24.286,10.678-29.173
			c1.551-0.669,3.182-1.158,4.848-1.755c-0.28-0.31-0.611-0.58-0.822-0.925c-0.75-1.235-1.843-1.5-3.216-1.466
			c-1.827,0.047-3.663-0.21-5.489-0.161c-0.901,0.025-1.922,0.236-2.668,0.711c-3.16,2.021-5.716,4.692-7.702,7.871
			c-0.46,0.738-0.8,1.683-0.816,2.538c-0.073,4.277-1.063,8.299-2.913,12.146c-0.353,0.73-0.562,1.603-0.568,2.41
			c-0.039,4.15,1.265,7.952,3.2,11.564c0.387,0.728,0.807,1.436,1.249,2.213c-0.308,0.131-0.474,0.266-0.64,0.266
			c-1.603,0.017-3.208,0.057-4.804-0.025c-0.356-0.019-0.821-0.421-1.006-0.77c-0.537-1.006-1.008-2.055-1.415-3.123
			c-0.562-1.475-1.04-2.983-1.557-4.486c-0.275,0.087-0.407,0.091-0.482,0.16c-2.759,2.453-5.779,4.49-9.206,5.909
			c-0.252,0.105-0.482,0.673-0.443,0.993c0.166,1.369,0.203,1.418-1.182,1.376c-3.8-0.121-7.618-0.108-11.395-0.499
			c-2.742-0.285-5.501-0.907-8.122-1.773c-4.276-1.414-7.814-4.093-10.954-7.293c0-2.596,0-5.193,0-7.79
			c2.08,3.649,4.855,6.635,8.444,8.842c3.271,2.011,6.785,3.28,10.648,3.496c0.921,0.05,1.507-0.147,1.255-1.275
			c-0.191-0.855-0.347-1.727-0.404-2.598c-0.078-1.178-0.586-1.691-1.804-1.885c-7.315-1.161-13.322-6.84-14.959-14.032
			c-1.681-7.372,1.15-15.015,7.215-19.331c5.264-3.745,11.004-4.404,17.1-2.48c0.569,0.181,1.074,0.381,1.51-0.258
			c0.603-0.882,1.299-1.702,1.846-2.615c0.154-0.262,0.064-0.938-0.158-1.112c-0.774-0.602-1.605-1.186-2.507-1.559
			c-2.456-1.016-5.073-0.925-7.668-0.894c-8.365,0.1-14.697,3.929-19.463,10.625c-0.351,0.495-0.702,0.989-1.055,1.483
			c0-2.749,0-5.497,0-8.246c0.319-0.271,0.65-0.529,0.955-0.817c5.425-5.129,11.796-8.031,19.329-8.199
			c0.315-0.008,0.626-0.084,0.942-0.13c-0.029-0.215-0.017-0.309-0.056-0.361c-0.16-0.211-0.327-0.422-0.507-0.615
			c-6.499-6.983-11.259-14.986-14.057-24.116c-4.333-14.123-3.798-28.068,1.636-41.814c3.894,0,7.789,0,11.683,0
			c-0.167,0.462-0.305,0.94-0.509,1.389c-4.8,10.522-6.098,21.456-3.572,32.746c3.072,13.728,10.64,24.391,22.375,32.128
			c0.785,0.519,1.373,0.546,2.136-0.07c3.429-2.771,7.188-5.023,11.183-6.887c0.326-0.152,0.626-0.361,1.174-0.684
			c-1.38-0.668-2.541-1.194-3.668-1.78c-9.4-4.874-15.725-12.356-19.046-22.411c-1.497-4.534-1.811-9.195-1.609-13.905
			c0.206-4.782,1.324-9.375,3.519-13.638c1.217-2.365,2.692-4.597,4.052-6.889c2.824,0,5.65,0,8.476,0
			c-0.221,0.261-0.426,0.54-0.666,0.786c-4.92,5.074-8.213,10.993-8.982,18.085c-0.402,3.708-0.467,7.47,0.301,11.166
			c1.019,4.9,3.156,9.258,6.285,13.188c4.419,5.553,10.072,9.337,16.899,10.85c6.742,1.493,13.599,1.145,20.116-1.492
			c7.097-2.87,12.333-7.862,15.913-14.613c2.683-5.062,3.496-10.472,3.327-16.153c-0.2-6.78-2.403-12.739-6.583-18.019
			c-1.013-1.277-2.058-2.53-3.088-3.793c2.827,0,5.651,0,8.476,0c0.131,0.23,0.237,0.479,0.394,0.693
			c5.904,7.999,8.084,17.027,7.002,26.797c-1.206,10.891-6.496,19.53-15.213,26.107c-0.741,0.557-1.498,1.089-2.492,1.811
			c0.673,0.207,1.061,0.31,1.436,0.446c3.862,1.412,7.758,2.74,11.562,4.295c1.249,0.512,1.953,0.4,2.87-0.529
			c9.489-9.599,14.554-21.152,15.176-34.6C166.622,25.056,164.684,16.717,160.832,8.819z M54.973,105.202
			c-0.445,6.397,4.32,13.22,11.693,15.007c1.509,0.366,1.848,0.131,1.834-1.341c-0.089-9.585,2.155-18.593,6.685-27.031
			c0.474-0.882,0.187-1.234-0.665-1.445c-2.714-0.677-5.465-0.763-8.155-0.073C59.089,92.188,54.51,99.022,54.973,105.202z
			 M155.497,107.486c0.15-0.183,0.254-0.251,0.28-0.346c1.201-4.24,3.301-7.928,6.584-10.926c0.23-0.208,0.246-0.955,0.058-1.277
			c-2.565-4.476-5.853-8.354-9.792-11.687c-0.52-0.44-0.998-0.459-1.54-0.054c-0.917,0.685-1.875,1.316-2.764,2.032
			c-0.255,0.205-0.522,0.654-0.471,0.932c0.407,2.173,0.009,4.244-0.646,6.299c-0.263,0.822-0.122,1.481,0.508,2.172
			c2.452,2.688,4.566,5.623,6.092,8.942C154.391,104.838,154.914,106.128,155.497,107.486z M88.838,104.977
			c0,0.646,0.033,1.296-0.01,1.942c-0.041,0.607-0.121,1.218-0.25,1.812c-1.164,5.405-4.126,9.545-8.891,12.327
			c-1.081,0.631-1.442,1.311-1.171,2.483c0.188,0.814,0.229,1.661,0.382,2.485c0.248,1.354,0.483,1.466,1.75,0.846
			c3.512-1.72,6.579-4.008,8.858-7.225c0.391-0.553,0.699-1.319,0.689-1.979c-0.091-5.265,1.156-10.191,3.466-14.897
			c0.33-0.67,0.478-1.567,0.348-2.298c-0.695-3.938-2.32-7.476-4.858-10.59c-0.515-0.63-0.916-0.586-1.35,0.009
			c-0.673,0.926-1.315,1.875-2.002,2.787c-0.505,0.67-0.499,1.229-0.004,1.952C87.916,97.741,88.989,101.188,88.838,104.977z
			 M98.574,80.016c0.005,0.127,0.012,0.253,0.016,0.379c0.34,0.136,0.674,0.293,1.024,0.402c4.693,1.45,9.482,2.248,14.404,2.316
			c1.1,0.016,1.536-0.357,1.815-1.38c0.955-3.529,3.062-6.263,6.041-8.348c0.263-0.185,0.51-0.391,0.766-0.59
			C113.862,72.875,105.836,75.22,98.574,80.016z M158.819,112.626c0.002,5.496,2.246,10.24,6.7,13.856
			c1.883,1.53,2.014,1.452,2.512-0.9c0.293-1.393,0.038-2.356-1.068-3.408c-4.584-4.362-5.407-11.62-1.872-17.014
			c0.971-1.482,1.178-2.689,0.342-4.159c-0.075-0.131-0.114-0.282-0.174-0.424c-0.555-1.35-0.792-1.406-1.748-0.337
			C160.445,103.679,158.713,107.642,158.819,112.626z M78.452,118.084c6.56-2.372,9.721-16.074,4.866-20.768
			C80.69,99.81,77.139,114.832,78.452,118.084z M131.079,81.951c0.009-2.721-2.125-4.868-4.835-4.861
			c-2.648,0.006-4.801,2.153-4.805,4.794c-0.006,2.707,2.155,4.862,4.865,4.854C128.995,86.729,131.072,84.645,131.079,81.951z
			 M168.561,120.427c0.295-4.81-0.123-9.295-1.351-13.906C164.17,109.915,164.895,117.378,168.561,120.427z M98.003,95.749
			c1.06-0.948,2.007-1.796,3.165-2.832c-1.68-0.461-3.143-0.861-4.864-1.333C96.955,93.186,97.493,94.5,98.003,95.749z"/>
		<path d="M121.659,8.819c3.678,1.179,7.065,2.88,9.896,5.557c5.042,4.762,7.817,10.517,7.805,17.55
			c-0.015,10.027-4.617,17.29-13.338,21.938c-10.927,5.822-25.506,1.47-31.639-9.296c-7.612-13.37-1.866-29.51,12.498-35.09
			c0.639-0.249,1.3-0.441,1.952-0.659C113.107,8.819,117.384,8.819,121.659,8.819z M135.238,32.415
			c0.723-10.28-8.778-20.611-20.903-20.18c-9.743,0.347-19.793,8.948-19.347,20.929c0.39,10.538,9.009,19.098,19.638,19.466
			C126.579,53.045,136.067,42.515,135.238,32.415z"/>
	</g>
	<text transform="matrix(1 0 0 1 48.7419 154.3921)" font-family="'MicrosoftYaHei'" font-size="17.6166">思源十二 · 韩国行</text>
</g>
<text transform="matrix(1 0 0 1 219.6267 96.7163)" font-family="'Zapfino'" font-size="73">Amazing Korea</text>
</svg>
