<?xml version="1.0" encoding="utf-8"?>
<!-- Generator: Adobe Illustrator 16.0.0, SVG Export Plug-In . SVG Version: 6.00 Build 0)  -->
<!DOCTYPE svg PUBLIC "-//W3C//DTD SVG 1.1//EN" "http://www.w3.org/Graphics/SVG/1.1/DTD/svg11.dtd">
<svg version="1.1" id="Layer_1" xmlns="http://www.w3.org/2000/svg" xmlns:xlink="http://www.w3.org/1999/xlink" x="0px" y="0px"
	 width="1000px" height="250px" viewBox="0 0 1000 250" enable-background="new 0 0 1000 250" xml:space="preserve">
<g>
	<g>
		<path d="M166.626,8.819c3.201,0,6.402,0,9.602,0c0.062,0.167,0.125,0.333,0.188,0.5c4.423,11.688,4.444,23.385-0.002,35.067
			c-2.296,6.032-5.759,11.334-10.205,16.001c-0.409,0.428-0.817,0.768-0.147,1.362c3.367,2.992,6.222,6.415,8.482,10.321
			c0.317,0.547,0.689,0.79,1.369,0.677c3.696-0.613,7.257-0.189,10.629,1.511c0,1.126,0,2.252,0,3.379
			c-2.727-1.708-5.703-2.361-8.898-2.144c-1.079,0.076-1.164,0.16-0.768,1.128c0.154,0.384,0.347,0.754,0.469,1.149
			c0.211,0.683,0.645,0.889,1.341,0.842c1.844-0.124,3.603,0.258,5.211,1.163c0.92,0.521,1.763,1.178,2.645,1.772
			c0,1.066,0,2.133,0,3.201c-0.298-0.365-0.586-0.741-0.899-1.097c-1.664-1.895-3.728-2.966-6.278-3.061
			c-0.657-0.025-0.955,0.108-0.735,0.848c1.523,5.138,2.104,10.379,1.668,15.728c-0.07,0.869,0.14,1.023,0.971,0.793
			c2.27-0.634,4.009-1.984,5.271-3.965c0,0.948,0,1.897,0,2.845c-1.412,1.255-2.95,2.406-4.826,2.699
			c-1.536,0.239-1.981,1.035-2.108,2.386c-0.097,1.029-0.004,1.208,1.056,1.119c2.146-0.182,4.07-0.988,5.878-2.114
			c0,1.008,0,2.017,0,3.023c-2.767,1.566-5.87,1.771-8.921,2.056c-1.997,0.187-4.027,0.051-6.041,0.038
			c-1.002-0.006-1.138-0.164-0.771-1.104c0.309-0.796,0.101-1.228-0.615-1.657c-2.604-1.56-4.569-3.742-6.014-6.398
			c-0.131-0.241-0.285-0.472-0.441-0.73c-0.127,0.128-0.194,0.162-0.203,0.209c-0.045,0.202-0.084,0.408-0.108,0.612
			c-0.329,2.917-1.195,5.672-2.548,8.272c-0.142,0.271-0.393,0.68-0.606,0.689c-1.425,0.062-2.857,0.033-4.47,0.033
			c0.221-0.46,0.335-0.75,0.493-1.015c3.337-5.624,3.867-11.6,2.131-17.813c-0.84-3.013-2.427-5.644-4.574-7.932
			c-0.449-0.479-0.741-0.525-1.301-0.048c-1.036,0.887-2.199,1.624-3.331,2.435c0.312,0.376,0.708,0.856,1.104,1.332
			c5.48,6.561,5.083,15.997-0.215,21.863c-1.104,1.222-3.617,1.753-5.301,1.015c0.302-0.211,0.581-0.372,0.817-0.58
			c0.888-0.779,1.842-1.501,2.625-2.376c2.709-3.04,3.625-6.684,3.199-10.654c-0.437-4.047-2.331-7.293-5.788-9.537
			c-0.338-0.219-0.828-0.354-1.22-0.307c-1.851,0.224-3.56-0.25-5.032-1.265c-0.862-0.598-1.702-1.006-2.69-0.89
			c-1.373,0.161-2.814,0.265-4.074,0.774c-4.957,2-8.012,5.679-8.648,11.021c-0.653,5.484,1.219,10.019,5.822,13.279
			c0.229,0.162,0.446,0.341,0.672,0.51c-0.02,0.09-0.039,0.179-0.057,0.27c-0.927,0-1.858-0.042-2.781,0.012
			c-0.849,0.052-1.526-0.211-2.012-0.885c-0.95-1.318-2.043-2.569-2.765-4.004c-4.292-8.549-0.497-18.852,8.289-22.646
			c1.205-0.52,2.471-0.899,3.764-1.362c-0.218-0.241-0.475-0.45-0.638-0.718c-0.583-0.958-1.431-1.164-2.497-1.137
			c-1.418,0.036-2.843-0.164-4.261-0.125c-0.7,0.02-1.493,0.183-2.072,0.552c-2.453,1.569-4.437,3.643-5.979,6.11
			c-0.357,0.573-0.621,1.307-0.633,1.971c-0.057,3.32-0.825,6.442-2.261,9.428c-0.274,0.567-0.437,1.245-0.441,1.871
			c-0.03,3.221,0.982,6.173,2.484,8.976c0.3,0.566,0.626,1.115,0.97,1.718c-0.24,0.102-0.368,0.207-0.498,0.207
			c-1.244,0.013-2.49,0.044-3.729-0.019c-0.276-0.015-0.638-0.327-0.781-0.598c-0.417-0.781-0.783-1.595-1.099-2.424
			c-0.436-1.146-0.808-2.316-1.208-3.483c-0.214,0.068-0.316,0.07-0.375,0.124c-2.141,1.905-4.486,3.486-7.146,4.587
			c-0.195,0.082-0.373,0.522-0.343,0.77c0.128,1.063,0.157,1.102-0.918,1.069c-2.95-0.094-5.914-0.084-8.845-0.387
			c-2.129-0.222-4.271-0.704-6.306-1.376c-3.319-1.098-6.066-3.177-8.503-5.662c0-2.015,0-4.031,0-6.047
			c1.615,2.833,3.768,5.15,6.555,6.864c2.54,1.561,5.267,2.546,8.266,2.714c0.715,0.039,1.169-0.114,0.974-0.989
			c-0.147-0.665-0.269-1.341-0.313-2.017c-0.061-0.915-0.455-1.313-1.4-1.464c-5.678-0.901-10.342-5.31-11.612-10.892
			c-1.305-5.722,0.893-11.655,5.6-15.006c4.087-2.907,8.542-3.418,13.274-1.925c0.441,0.14,0.834,0.295,1.172-0.2
			c0.468-0.685,1.008-1.321,1.433-2.03c0.12-0.204,0.05-0.728-0.123-0.863c-0.601-0.467-1.246-0.92-1.946-1.21
			c-1.906-0.789-3.938-0.718-5.953-0.694c-6.492,0.078-11.408,3.05-15.108,8.248c-0.272,0.384-0.545,0.768-0.819,1.151
			c0-2.134,0-4.267,0-6.401c0.248-0.21,0.504-0.41,0.741-0.634c4.211-3.981,9.157-6.234,15.005-6.365
			c0.244-0.006,0.486-0.065,0.73-0.101c-0.021-0.167-0.013-0.24-0.043-0.28c-0.125-0.164-0.254-0.328-0.393-0.478
			c-5.045-5.42-8.74-11.633-10.913-18.72c-3.363-10.963-2.948-21.788,1.271-32.458c3.023,0,6.046,0,9.069,0
			c-0.13,0.358-0.237,0.729-0.395,1.078c-3.726,8.168-4.734,16.656-2.773,25.419c2.385,10.657,8.259,18.935,17.369,24.94
			c0.609,0.402,1.066,0.424,1.658-0.055c2.663-2.151,5.581-3.899,8.682-5.346c0.253-0.118,0.486-0.28,0.911-0.531
			c-1.071-0.518-1.973-0.927-2.847-1.382c-7.297-3.783-12.207-9.592-14.785-17.397c-1.163-3.519-1.407-7.138-1.249-10.793
			c0.159-3.713,1.028-7.278,2.731-10.587c0.945-1.835,2.089-3.568,3.146-5.347c2.192,0,4.386,0,6.58,0
			c-0.172,0.202-0.331,0.419-0.518,0.61c-3.819,3.939-6.375,8.534-6.972,14.039c-0.312,2.879-0.362,5.798,0.233,8.668
			c0.791,3.804,2.45,7.186,4.879,10.237c3.43,4.311,7.819,7.248,13.118,8.422c5.234,1.159,10.557,0.889,15.616-1.158
			c5.51-2.228,9.573-6.103,12.353-11.344c2.082-3.93,2.713-8.129,2.583-12.539c-0.156-5.263-1.866-9.889-5.11-13.987
			c-0.786-0.991-1.597-1.964-2.397-2.945c2.194,0,4.386,0,6.579,0c0.102,0.179,0.184,0.373,0.306,0.538
			c4.583,6.209,6.275,13.217,5.436,20.802c-0.936,8.454-5.042,15.161-11.809,20.266c-0.575,0.433-1.163,0.846-1.935,1.407
			c0.522,0.16,0.823,0.24,1.114,0.346c2.998,1.096,6.023,2.126,8.976,3.334c0.97,0.398,1.516,0.311,2.228-0.41
			c7.365-7.452,11.297-16.42,11.78-26.859C171.12,21.423,169.615,14.949,166.626,8.819z M84.45,83.638
			c-0.346,4.966,3.354,10.262,9.077,11.649c1.172,0.284,1.435,0.101,1.424-1.041c-0.069-7.44,1.672-14.433,5.189-20.983
			c0.369-0.685,0.146-0.958-0.517-1.122c-2.107-0.526-4.242-0.592-6.33-0.057C87.646,73.536,84.091,78.84,84.45,83.638z
			 M162.484,85.411c0.116-0.142,0.197-0.195,0.217-0.269c0.932-3.292,2.563-6.154,5.111-8.481c0.179-0.162,0.191-0.742,0.045-0.991
			c-1.991-3.475-4.544-6.485-7.601-9.072c-0.404-0.342-0.775-0.356-1.195-0.042c-0.712,0.532-1.456,1.022-2.146,1.578
			c-0.198,0.159-0.405,0.507-0.365,0.723c0.316,1.687,0.006,3.294-0.501,4.89c-0.205,0.638-0.094,1.149,0.395,1.686
			c1.903,2.086,3.544,4.365,4.729,6.942C161.625,83.355,162.031,84.356,162.484,85.411z M110.739,83.463
			c0,0.501,0.026,1.006-0.007,1.508c-0.032,0.471-0.094,0.945-0.194,1.407c-0.903,4.195-3.203,7.409-6.902,9.569
			c-0.839,0.489-1.119,1.018-0.909,1.928c0.146,0.631,0.178,1.289,0.296,1.928c0.192,1.052,0.375,1.139,1.358,0.657
			c2.727-1.335,5.107-3.111,6.877-5.608c0.303-0.429,0.542-1.023,0.534-1.536c-0.071-4.087,0.897-7.911,2.691-11.564
			c0.257-0.52,0.371-1.216,0.27-1.784c-0.54-3.057-1.801-5.804-3.771-8.221c-0.399-0.489-0.711-0.455-1.048,0.008
			c-0.522,0.718-1.021,1.456-1.554,2.163c-0.392,0.521-0.387,0.954-0.003,1.515C110.023,77.846,110.855,80.522,110.739,83.463z
			 M118.297,64.087c0.004,0.098,0.009,0.196,0.012,0.294c0.264,0.106,0.523,0.228,0.795,0.312c3.643,1.125,7.361,1.745,11.181,1.797
			c0.854,0.013,1.192-0.276,1.409-1.071c0.741-2.739,2.376-4.861,4.689-6.48c0.204-0.143,0.396-0.303,0.595-0.458
			C130.164,58.543,123.934,60.364,118.297,64.087z M165.062,89.4c0.001,4.267,1.744,7.949,5.201,10.756
			c1.462,1.188,1.564,1.126,1.95-0.699c0.229-1.082,0.03-1.829-0.829-2.646c-3.558-3.386-4.197-9.02-1.453-13.207
			c0.754-1.151,0.915-2.088,0.266-3.229c-0.058-0.102-0.089-0.219-0.135-0.329c-0.431-1.048-0.615-1.092-1.357-0.261
			C166.324,82.456,164.98,85.532,165.062,89.4z M102.677,93.638c5.092-1.842,7.546-12.478,3.776-16.122
			C104.413,79.452,101.657,91.113,102.677,93.638z M143.53,65.589c0.006-2.112-1.65-3.779-3.753-3.773
			c-2.056,0.005-3.728,1.671-3.731,3.721c-0.004,2.101,1.673,3.775,3.777,3.768C141.911,69.298,143.523,67.68,143.53,65.589z
			 M172.625,95.456c0.229-3.733-0.096-7.215-1.048-10.795C169.216,87.296,169.779,93.09,172.625,95.456z M117.853,76.3
			c0.823-0.736,1.558-1.394,2.457-2.198c-1.305-0.358-2.44-0.669-3.776-1.035C117.04,74.311,117.458,75.33,117.853,76.3z"/>
		<path d="M136.217,8.819c2.855,0.916,5.484,2.236,7.682,4.314c3.914,3.696,6.068,8.164,6.059,13.623
			c-0.011,7.784-3.583,13.422-10.354,17.03c-8.482,4.52-19.8,1.141-24.56-7.217c-5.909-10.378-1.449-22.907,9.701-27.239
			c0.496-0.193,1.01-0.342,1.516-0.512C129.578,8.819,132.898,8.819,136.217,8.819z M146.757,27.136
			c0.562-7.98-6.814-16-16.226-15.665c-7.563,0.27-15.365,6.946-15.019,16.247c0.304,8.181,6.994,14.825,15.245,15.11
			C140.036,43.15,147.401,34.976,146.757,27.136z"/>
	</g>
	<text transform="matrix(1 0 0 1 79.6125 121.8213)" font-family="'MicrosoftYaHei'" font-size="13.6751">思源十二 · 韩国行</text>
</g>
<text transform="matrix(1 0 0 1 219.6262 96.7168)" font-family="'Zapfino'" font-size="73">Amazing Korea</text>
</svg>
