<?xml version="1.0" encoding="utf-8"?>
<!-- Generator: Adobe Illustrator 18.1.1, SVG Export Plug-In . SVG Version: 6.00 Build 0)  -->
<!DOCTYPE svg PUBLIC "-//W3C//DTD SVG 1.1//EN" "http://www.w3.org/Graphics/SVG/1.1/DTD/svg11.dtd">
<svg version="1.1" id="Layer_1" xmlns="http://www.w3.org/2000/svg" xmlns:xlink="http://www.w3.org/1999/xlink" x="0px" y="0px"
	 width="619px" height="171px" viewBox="-190.1 15 619 171" enable-background="new -190.1 15 619 171" xml:space="preserve">
<g>
	<g>
		<path d="M-42.7,67.1c-0.4,0.4-0.7,0.7-1.1,0.7c-0.8,0-1.2-0.4-1.2-1.3v-0.4c0.5-1.1,0.9-2.2,1.2-3.2c0.3-1.1,0.4-2.2,0.4-3.3
			c0-1.2-0.3-2.3-0.9-3c-0.7-0.7-1.4-1.2-2.3-1.6c-0.9-0.4-1.9-0.6-2.8-0.7c-1-0.1-1.9-0.1-2.6-0.1c-2.8,0-5.6,0.4-8.6,1
			c-3,0.7-6,1.6-8.9,2.8s-5.7,2.8-8.4,4.7c-2.6,1.8-4.9,3.9-6.8,6.3c-1.9,2.4-3.3,5-4.3,7.9c-1,2.8-1.3,6-1,9.3
			c0.9,3.6,2.4,6.7,4.7,9.2c2.3,2.5,4.9,4.5,8.1,6c3.1,1.5,6.5,2.6,10.2,3.3c3.6,0.7,7.3,1,10.8,1c3.1,0,6.1-0.2,9-0.7
			c2.9-0.4,5.7-1,8.3-1.7c2.5-0.7,4.9-1.5,6.9-2.3s3.7-1.6,5-2.3c0.3-0.1,0.7-0.4,1.2-0.8c0.5-0.4,1.1-0.5,1.7-0.4
			c0.4,0.1,0.7,0.2,0.8,0.6c0.1,0.3,0.1,0.6-0.1,0.9c-0.1,0.2-0.2,0.4-0.6,0.7c-0.3,0.3-0.6,0.4-0.9,0.7c-0.9,0.7-2.5,1.6-4.6,2.5
			c-2.1,0.9-4.5,1.7-7.3,2.5s-5.7,1.5-8.9,2c-3.2,0.7-6.4,0.9-9.5,0.9c-2.7,0-5.4-0.1-8.1-0.4s-5.2-0.8-7.7-1.4
			c-2.5-0.7-4.9-1.5-7.6-2.7c-2.5-1.2-4.9-2.7-7.1-4.5c-2.1-1.8-3.9-4-5.2-6.5c-1.4-2.5-2-5.5-2-8.9c0-3.6,0.7-6.8,2-9.7
			c1.4-2.9,3.2-5.6,5.5-8c2.3-2.4,4.8-4.4,7.7-6.3s5.8-3.3,8.9-4.5c3.1-1.2,6.1-2.1,9.1-2.7c3-0.6,5.7-0.9,8.1-0.9
			c1.5,0,2.8,0.1,4.1,0.4c1.3,0.3,2.5,0.7,3.4,1.3c0.9,0.7,1.7,1.5,2.3,2.5c0.6,1.1,0.9,2.4,0.9,4c0,1.2-0.1,2.4-0.5,3.6
			C-41.6,64.7-42.1,65.9-42.7,67.1z"/>
		<path d="M17.5,97.6c0.2-0.1,0.5-0.3,0.8-0.3c0.3,0,0.6,0.1,0.8,0.4c0.3,0.2,0.4,0.5,0.4,0.8c0,0.7-0.6,1.4-1.7,2.1s-2.5,1.4-4.1,2
			c-1.6,0.6-3.1,1.1-4.7,1.5c-1.6,0.4-2.8,0.6-3.7,0.6c-1.2,0-2.3-0.1-3.3-0.5c-1.1-0.4-2-0.9-2.8-1.7c-0.5-0.5-1-1.1-1.5-1.8
			c-0.5-0.7-1-1.3-1.5-2C-4.6,98-5.2,97.5-5.7,97c-0.6-0.5-1.2-0.7-1.9-0.8c-0.9,0-1.9,0.4-2.8,1c-0.9,0.7-2,1.5-3,2.5
			c-1,0.9-2,2-2.9,3.1c-0.9,1.1-1.8,2-2.7,2.9c-0.2,0.2-0.5,0.4-0.9,0.4c-0.7,0-1.6-0.6-2.5-1.8c-0.9-1.2-1.8-2.5-2.5-3.8
			c-0.3,0.2-0.7,0.5-1.3,0.9c-0.6,0.4-1,0.6-1.4,0.6s-0.7-0.1-0.9-0.4c-0.3-0.3-0.4-0.6-0.4-0.9c0-0.4,0.3-0.9,0.9-1.3
			c0.7-0.4,1.2-0.8,1.9-1.3c-1-2.8-1.5-6.3-1.5-10.4c0-3,0.4-6,1.4-9c0.9-3.1,2.3-5.9,4.2-8.5c1.9-2.6,4.2-4.9,7-6.7
			c2.8-1.9,6-3.1,9.7-3.8h0.3c0.7,0,1.1,0.4,1.1,1C-4.4,64-5.1,67.5-6,71c-0.9,3.5-2.1,6.9-3.6,10.2c-1.5,3.3-3.3,6.5-5.5,9.4
			s-4.6,5.6-7.4,8c0.4,1,0.9,1.9,1.3,2.5c0.4,0.7,0.9,1.2,1.2,1.7c0.8-0.9,1.7-1.8,2.7-2.8c0.9-1.1,2-2,3.1-3
			c1.1-0.9,2.2-1.7,3.3-2.3c1.1-0.7,2.1-0.9,3.2-0.9s2,0.3,2.8,0.8c0.8,0.5,1.5,1.2,2.2,2c0.7,0.7,1.2,1.5,1.7,2.3
			c0.5,0.8,1.1,1.4,1.7,2c0.7,0.6,1.3,0.9,2.1,1.2c0.8,0.2,1.6,0.4,2.5,0.4c1.1,0,2.2-0.1,3.3-0.4s2.2-0.7,3.3-1.1
			c1.1-0.4,2.1-0.9,3-1.5C15.9,98.6,16.7,98.1,17.5,97.6z M-23.5,96.2c2-1.6,3.9-3.7,5.8-6.3s3.6-5.5,5-8.5c1.5-3.1,2.8-6.2,3.8-9.5
			c1-3.3,1.7-6.3,2.1-9.2C-7,62.7-7.6,63-8.6,63.3c-1,0.4-2.2,0.9-3.5,1.7s-2.8,1.7-4.3,3s-2.9,2.8-4.1,4.5s-2.3,3.9-3.1,6.2
			c-0.8,2.4-1.2,5.1-1.2,8.1C-24.8,89.8-24.4,92.9-23.5,96.2z"/>
		<path d="M24.3,93.6c-0.9,1.7-2,3.1-3.4,4.4c-1.4,1.3-2.8,2.3-4,3c-0.9,0.4-1.5,0.2-1.9-0.4c-0.4-0.6-0.3-1.2,0.4-1.7
			c0.7-0.4,1.7-1.1,2.7-1.8c1.1-0.8,2-1.8,2.8-3.1c-1.3,0.1-2.6,0.3-3.8,0.3c-1.2,0-2.2-0.2-3-0.7c-0.7-0.4-1-0.9-1.1-1.3
			c0-0.5,0.1-0.9,0.4-1.4c0.3-0.4,0.7-0.9,1.2-1.3c0.5-0.4,0.9-0.7,1.3-0.9c2-1.1,3.7-1.4,5.4-0.9c1.6,0.5,2.6,1.5,3,3.1
			c1.7-0.2,3.1-0.2,4.4-0.1c1.3,0.2,2.3,0.8,2.8,1.7c0.4,0.7,0.3,1.6-0.1,2.6c-0.4,1-0.8,2-1.1,3.1c-0.4,1.1-0.5,2.3-0.4,3.7
			c0,1.4,0.5,2.3,1.5,2.8c1.7,0.8,3.7,1,5.9,0.6c2.3-0.4,4.3-1,6.3-2c2-0.9,3.7-1.8,5.3-2.8c1.6-0.9,2.8-1.7,3.6-2.3
			c0.7-0.4,1.2-0.7,1.6-0.9c0.4-0.1,0.8-0.1,1.1,0.1c0.7,0.8,0.4,1.7-1.2,2.8c-1.3,0.9-2.8,1.8-4.4,2.8c-1.6,0.9-2.9,1.7-4,2.2
			s-2.3,0.9-3.4,1.4c-1.2,0.4-2.5,0.7-4,1c-1.5,0.3-2.8,0.4-4.1,0.3c-1.2-0.1-2.4-0.4-3.6-0.8c-1.2-0.4-2-1.3-2.8-2.5
			c-0.4-0.9-0.7-2-0.7-3.3s0.2-2.5,0.7-3.8c0.2-0.7,0.5-1.4,0.8-2c0.3-0.7,0.4-1.2,0.3-1.5c-0.2-0.4-0.7-0.7-1.5-0.7
			C26.6,93.3,25.5,93.5,24.3,93.6z M16.2,91.6c0,0.2,0.7,0.3,1.9,0.2c1.3-0.1,2.4-0.2,3.4-0.4c-0.1-0.7-0.4-1.2-1.2-1.4
			c-0.8-0.1-1.7-0.1-2.6,0.4C16.7,90.9,16.2,91.2,16.2,91.6z"/>
		<path d="M84.8,97.6c0.3-0.2,0.7-0.3,1-0.2c0.4,0.1,0.7,0.3,0.8,0.5c0.1,0.3,0.1,0.6,0.1,1c-0.1,0.4-0.5,0.8-1.1,1.2
			c-1.1,0.8-2.5,1.6-4.4,2.4s-3.9,1.5-6,2.1c-2.1,0.7-4.2,1-6.2,1.1c-2,0.1-3.9,0.1-5.6-0.1c-1.3-0.2-2.4-0.5-3.3-0.9
			c-0.9-0.4-1.7-0.8-2.5-1.4c-0.7-0.5-1.5-1.3-2.4-2.3c-0.9-1-1.3-1.8-1.5-2.5c-0.1-0.7,0.3-1.2,1.1-1.2c0.4,0,0.9,0.3,1.3,0.9
			c0.4,0.6,0.8,1.1,1.2,1.5c0.4,0.4,0.9,0.9,1.5,1.4c0.6,0.5,1.3,0.9,2.2,1.3c1.2,0.6,2.9,0.9,5.2,1.1c2.4,0.1,4.7-0.1,6.9-0.7
			c2.3-0.6,4.4-1.3,6.3-2.2C81.4,99.7,83.2,98.7,84.8,97.6z M53.8,86.7c0.1-0.4,0.2-0.7,0.4-0.9c0.3-0.2,0.5-0.4,0.9-0.3
			c0.3,0,0.6,0.1,0.9,0.4s0.4,0.6,0.4,1c0,0.7,0.3,0.9,0.8,0.9c0.5,0,1.1,0,1.6-0.1c0.4-0.1,0.8,0,1.1,0.2c0.3,0.2,0.4,0.4,0.4,0.7
			c0.1,0.3,0,0.6-0.1,0.9c-0.1,0.3-0.4,0.5-0.9,0.7c-1.4,0.4-2.6,0.4-3.8-0.2C54.4,89.4,53.8,88.3,53.8,86.7z"/>
		<path d="M85.2,100.4c-0.2,0.1-0.4,0.1-0.7,0c-0.4-0.1-0.6-0.2-0.8-0.4c-0.1-0.2-0.3-0.4-0.3-0.8c0-0.4,0.1-0.7,0.4-1
			c2.2-1.6,3.9-3,5-4.2c1.2-1.2,2.3-2.3,3.5-3.4c0.4-0.4,0.8-0.6,1.1-0.5c0.7,0.1,2,0.5,3.6,1.3c1.6,0.7,3.3,1.7,5.2,2.9
			c1.8,1.2,3.5,2.6,5,4.1c1.6,1.6,2.6,3.2,3.2,4.9h1.3c1.7,0,3.9-0.4,6.5-1.3c2.7-0.9,5.5-2.3,8.1-4.1c0.3-0.2,0.6-0.3,1-0.3
			c0.4,0.1,0.7,0.2,0.8,0.4c0.1,0.1,0.2,0.4,0.3,0.7c0.1,0.4-0.1,0.7-0.7,1.2c-1.7,1.3-3.5,2.3-5.2,3.1c-1.7,0.7-3.4,1.3-4.9,1.7
			s-2.8,0.7-4,0.8c-1.2,0.1-2.2,0.2-2.9,0.2c-0.1,0.5-0.2,1.1-0.5,1.7c-0.3,0.7-0.7,1.2-1.2,1.8c-0.5,0.6-1.2,1.1-2,1.5
			c-0.8,0.4-1.7,0.6-2.7,0.6c-1.2,0-2.2-0.4-3.2-1.2c-1-0.8-1.5-2-1.5-3.4c0-0.8,0.2-1.5,0.6-2c0.4-0.5,0.9-0.9,1.5-1.2
			c0.6-0.3,1.2-0.4,1.9-0.6c0.7-0.1,1.2-0.1,1.7-0.1c0.3,0,0.6,0,1,0.1c0.4,0,0.7,0.1,1.2,0.1c-0.7-1.5-1.8-2.8-3.4-4.1
			c-1.6-1.3-3.1-2.4-4.7-3.3c-1.5-0.9-2.8-1.7-3.7-2.1c-0.9-0.4-1.5-0.7-1.8-0.9c-1.3,1.2-2.7,2.5-4.1,3.9
			C88.4,97.9,86.8,99.2,85.2,100.4z M108.1,105.6c-0.5-0.1-1-0.1-1.5-0.1c-0.4,0-0.9-0.1-1.4-0.1c-0.2,0-0.5,0-0.9,0.1
			c-0.4,0-0.7,0.1-1,0.1c-0.3,0.1-0.6,0.2-0.8,0.4c-0.2,0.2-0.4,0.5-0.4,0.9c0.1,1.2,0.6,1.9,1.5,2.2c0.9,0.3,1.7,0.2,2.5-0.2
			c0.6-0.3,1-0.8,1.4-1.5C108,106.7,108.1,106.1,108.1,105.6z"/>
		<path d="M156.8,97.6c0.4-0.3,0.8-0.4,1.2-0.3c0.4,0.1,0.6,0.3,0.7,0.7c0.1,0.4,0.1,0.7,0,1c-0.1,0.4-0.4,0.7-0.9,1
			c-1,0.9-2.5,1.7-4.5,2.5c-2,0.9-4,1.6-6.1,2.3c-2,0.7-4.1,1-6,1.2c-2,0.1-3.8,0.1-5.5-0.1c-1.3-0.2-2.5-0.6-3.4-1
			c-0.9-0.4-1.9-1-2.7-1.7c-0.8-0.7-1.6-1.7-2.3-2.8c-0.7,0.7-1.3,1-2,1.2c-0.4,0.1-0.7,0.1-1-0.1c-0.3-0.1-0.4-0.4-0.5-0.5
			c-0.1-0.1-0.1-0.4-0.1-0.7c0-0.3,0.2-0.6,0.4-0.9c0.1-0.1,0.4-0.3,0.9-0.6c0.4-0.3,0.8-0.5,1.2-0.8c-1.1-2.9-1.6-6.3-1.6-10.3
			c0-2.4,0.3-4.9,0.9-7.3l-18.1-0.1c-0.4-0.1-0.8-0.2-1-0.5c-0.2-0.3-0.3-0.6-0.3-0.9s0.1-0.6,0.4-0.8c0.3-0.3,0.6-0.4,1.1-0.4
			l18.6,0.1c0.5-1.4,1.1-2.7,1.8-3.9c1.2-2.2,2.5-4.1,4.2-6c1.7-1.8,3.6-3.3,5.8-4.7c1.2-0.7,2.5-1.5,4-2c1.5-0.7,3.1-1.1,4.9-1.5
			c0.9-0.1,1.4,0.2,1.4,1c-0.4,3.6-1.1,7.1-2,10.5c-0.7,2.2-1.4,4.4-2.3,6.6l15.9,0.1c0.8,0.2,1.2,0.7,1.1,1.3
			c-0.1,0.7-0.5,1-1.3,1.2H143c-0.1,0.3-0.6,1.3-1.4,3.2c-0.8,1.8-2.3,4.2-4.4,7.2c-2.1,3-4.6,5.6-7.4,8c1.2,2.6,3.5,4.3,6.9,4.9
			c3.1,0.4,5.9,0.2,8.3-0.4c2.4-0.7,4.7-1.5,6.8-2.5C153.9,99.5,155.6,98.6,156.8,97.6z M128.7,96.2c2-1.5,3.9-3.6,5.7-6.3
			c1.9-2.6,3.3-4.8,4.1-6.5c0.9-1.7,1.4-2.8,1.5-3.1h-12c-0.5,2-0.8,4.2-0.8,6.6C127.3,89.6,127.8,92.8,128.7,96.2z M143.4,71.9
			c1.1-3.3,1.7-6.3,2-9.1c-0.4,0.1-1,0.3-2,0.6c-0.9,0.4-2.1,0.9-3.4,1.7c-1.3,0.8-2.8,1.7-4.3,3c-1.5,1.2-2.9,2.8-4.1,4.5
			c-1.1,1.5-2,3.2-2.8,5.2h12.4C142.1,75.7,142.8,73.9,143.4,71.9z"/>
		<path d="M187.9,97.6c0.3-0.2,0.7-0.3,1-0.2s0.7,0.3,0.8,0.5c0.1,0.3,0.1,0.6,0.1,1c-0.1,0.4-0.5,0.8-1.1,1.2
			c-1.1,0.8-2.5,1.6-4.4,2.4s-3.9,1.5-6,2.1c-2.1,0.7-4.2,1-6.2,1.1c-2,0.1-3.9,0.1-5.6-0.1c-1.3-0.2-2.4-0.5-3.3-0.9
			c-0.9-0.4-1.7-0.8-2.5-1.4c-0.7-0.5-1.5-1.3-2.4-2.3c-0.9-1-1.3-1.8-1.5-2.5c-0.1-0.7,0.3-1.2,1.1-1.2c0.4,0,0.9,0.3,1.3,0.9
			c0.4,0.6,0.8,1.1,1.2,1.5c0.4,0.4,0.9,0.9,1.5,1.4c0.6,0.5,1.3,0.9,2.2,1.3c1.2,0.6,2.9,0.9,5.2,1.1c2.4,0.1,4.7-0.1,6.9-0.7
			c2.3-0.6,4.4-1.3,6.3-2.2C184.5,99.7,186.3,98.7,187.9,97.6z M157,86.7c0.1-0.4,0.2-0.7,0.4-0.9c0.3-0.2,0.5-0.4,0.9-0.3
			c0.3,0,0.6,0.1,0.9,0.4c0.3,0.2,0.4,0.6,0.4,1c0,0.7,0.3,0.9,0.8,0.9c0.5,0,1.1,0,1.6-0.1c0.4-0.1,0.8,0,1.1,0.2
			c0.3,0.2,0.4,0.4,0.4,0.7c0.1,0.3,0,0.6-0.1,0.9c-0.1,0.3-0.4,0.5-0.9,0.7c-1.4,0.4-2.6,0.4-3.8-0.2C157.5,89.4,157,88.3,157,86.7
			z"/>
		<path d="M211.1,96.1c0.6,0.1,0.9,0.6,0.9,1.3c0,0.4-0.1,0.7-0.4,0.9c-0.3,0.2-0.5,0.4-0.8,0.4c-0.1,0-0.7-0.1-1.4-0.3
			c-0.8-0.2-2.1-0.4-4.1-0.6c-2-0.1-3.8-0.3-5.5-0.3c-0.7,0-1.7,0.1-2.9,0.3c-1.2,0.1-2.3,0.4-3.5,0.6c-1.1,0.2-2.1,0.5-3.1,0.9
			c-0.9,0.4-1.4,0.7-1.4,1c0,0.5,0.9,1,2.5,1.5c1.7,0.4,3.3,0.7,4.7,0.8c1.5,0.1,2.5,0.1,3.4,0.1c0.9,0,1.7-0.1,2.4-0.1
			c0.7-0.1,1.9-0.3,3.5-0.6c1.6-0.3,3.3-0.7,5-1.4c1.8-0.7,3.4-1.5,4.9-2.3c1.5-0.9,2.4-1.8,2.8-2.8c0.1-0.7,0.6-0.9,1.3-0.9
			c0.5,0,0.9,0.2,1.1,0.6c1.3,2.5,3.1,4.3,5.5,5.5c2.3,1.1,4.9,1.7,7.6,1.7c2.5,0,4.9-0.4,7.2-1.1c2.3-0.7,4.2-1.7,6-3.1
			c0.6-0.4,1-0.6,1.3-0.6c0.4,0,0.7,0.1,0.9,0.4c0.2,0.2,0.4,0.5,0.4,0.8c0,0.3-0.1,0.5-0.1,0.7c-0.1,0.2-0.4,0.4-0.8,0.7
			c-1.9,1.5-4,2.7-6.4,3.5c-2.4,0.9-5.1,1.3-8.1,1.3c-2.8,0-5.4-0.5-7.9-1.5s-4.7-2.7-6.3-5.1c-1.2,1.2-2.5,2.1-4.1,3
			c-1.6,0.9-3.3,1.6-5.2,2.1c-1.9,0.6-3.8,1-5.7,1.3c-2,0.3-3.9,0.4-5.8,0.4c-2.5,0-4.7-0.1-6.4-0.4c-1.7-0.3-3.1-0.7-4.2-1.2
			c-1.1-0.5-1.9-0.9-2.3-1.4c-0.5-0.4-0.7-0.9-0.7-1.4c0-0.7,0.4-1.2,1.2-1.9c0.8-0.7,1.9-1.2,3.2-1.7c1.3-0.5,2.8-0.9,4.4-1.2
			c1.7-0.4,3.3-0.6,5.2-0.7c2.1-0.1,4.1,0,6,0.1C206.9,95.2,209,95.5,211.1,96.1z"/>
		<path d="M289.3,97.5c0.7-0.4,1.3-0.3,1.6,0.3c0.4,0.5,0.3,1.1-0.1,1.6c-1.4,1.2-2.8,2.1-4.3,2.8c-1.5,0.8-3.3,1.4-5.4,1.7
			c-2.1,0.4-4.1,0.5-5.9,0.4c-1.9-0.1-3.5-0.8-4.9-2c-0.7-0.7-1.2-1.2-1.6-1.7c-0.4-0.5-0.9-1.1-1.3-1.8c-0.5-0.7-1-1.3-1.5-1.8
			s-1.2-0.8-1.8-0.9c-0.8,0-1.7,0.4-2.7,1c-0.9,0.7-2,1.5-3,2.5c-1,0.9-2,2-3,3.1c-1,1.1-2,2-2.8,2.9c-0.4,0.4-0.9,0.4-1.5,0.1
			c-0.8-0.4-1.6-1.4-2.3-3.1c-0.8-1.6-1.3-2.9-1.6-3.8c-0.1-0.4-0.1-0.9,0.1-1.2c0.2-0.4,0.5-0.6,0.8-0.7c0.3-0.1,0.6-0.1,0.9,0.1
			c0.3,0.1,0.5,0.4,0.6,0.7c0.3,0.9,0.7,1.9,1.2,3.1c0.5,1.2,0.9,1.8,1.1,1.7c0.1,0.1,0.8-0.7,2.1-2.2c1.4-1.5,2.6-2.8,3.6-3.7
			c1.1-0.9,2.1-1.7,3.2-2.3c1.1-0.7,2.1-0.9,3.2-0.9c1.1,0,2,0.3,2.7,0.8s1.4,1.2,2,1.8c0.6,0.7,1.2,1.5,1.7,2.3
			c0.6,0.8,1.2,1.5,2,2.2c1.2,0.7,2.5,1.2,4.1,1.2c1.5,0.1,3.1-0.1,4.7-0.4c1.5-0.4,3.1-0.9,4.5-1.7C287,99,288.3,98.3,289.3,97.5z"
			/>
		<path d="M328.6,98.6c0.8-0.4,1.3-0.7,1.6-0.7c0.4-0.1,0.8,0.1,1,0.3c0.2,0.3,0.3,0.6,0.2,1c-0.1,0.4-0.4,0.8-0.9,1.1
			c-2.3,1.7-6.2,3.1-11.5,4.3s-10.3,1.7-14.8,1.7c-1.5,0-3.1-0.1-4.7-0.1c-1.6-0.1-3.1-0.4-4.7-0.7c-1.5-0.4-2.8-0.9-3.9-1.6
			c-1.1-0.7-2-1.6-2.8-2.7c-0.8,0-1.3-0.3-1.5-0.9c-0.2-0.7-0.1-1.2,0.5-1.5c-0.1-0.7-0.1-1.5-0.1-2.1s0.4-1.5,0.7-2.3
			c0.4-0.8,1-1.7,1.9-2.5c0.9-0.8,1.9-1.5,3.1-2.1c1.2-0.7,2.5-1,3.7-1.1c1.3-0.1,2.2,0.1,2.8,0.4c0.5,0.4,0.8,0.9,0.8,1.6
			c0,0.7-0.4,1.5-1.2,2.5c-0.8,0.9-1.5,1.6-2.3,2.2c-0.8,0.6-1.7,1.2-2.9,2.1c-1.2,0.8-2.3,1.5-3.2,2.1c0.7,1.1,1.6,1.9,2.8,2.5
			c1.2,0.6,2.6,1,4,1.2c1.5,0.3,2.8,0.4,4.1,0.4c1.3,0,2.4,0.1,3.2,0.1c4.4,0,8.6-0.4,12.7-1.4C321.8,101.6,325.4,100.2,328.6,98.6z
			 M290,97c2-1.2,3.7-2.5,5.2-3.6c1.5-1.2,2.1-1.9,2.1-2.3c0-0.2-0.3-0.3-0.8-0.3c-0.5,0.1-1.2,0.3-1.8,0.6c-0.7,0.4-1.4,0.8-2,1.4
			c-0.7,0.6-1.3,1.2-1.8,2C290.2,95.5,290,96.2,290,97z"/>
	</g>
	<g>
		<path d="M-88,137.5h4.3c1,0,1.7,0.3,2.3,0.8c0.6,0.6,0.9,1.2,0.9,2c0,0.7-0.1,1.2-0.4,1.7c-0.3,0.4-0.8,0.8-1.5,1l0,0
			c0.7,0.1,1.2,0.5,1.6,1c0.4,0.5,0.6,1.2,0.6,1.9c0,0.4-0.1,0.9-0.2,1.2c-0.1,0.4-0.4,0.7-0.7,1c-0.4,0.3-0.8,0.5-1.3,0.7
			c-0.5,0.1-1.2,0.2-2,0.2h-3.6L-88,137.5L-88,137.5z M-86.7,142.5h2.3c0.9,0,1.6-0.2,2-0.6c0.4-0.4,0.7-0.9,0.7-1.4
			c0-1.3-0.7-1.9-2.2-1.9h-2.8V142.5z M-86.7,147.9h2.4c1.9,0,2.8-0.7,2.8-2.1c0-0.7-0.3-1.3-0.8-1.7c-0.6-0.4-1.3-0.6-2.2-0.6h-2.2
			L-86.7,147.9L-86.7,147.9z"/>
		<path d="M-74.1,137.5V149h-1.3v-11.6H-74.1z"/>
		<path d="M-70.1,149l3.6-11.6h2L-61,149h-1.4l-1.1-3.6h-4.1l-1.1,3.6H-70.1z M-67.4,144.4h3.5l-1.7-6h-0.1L-67.4,144.4z"/>
		<path d="M-57.3,149v-11.6h1.8l5.1,8.9h0.1v-8.9h1.2V149h-1.1l-5.9-10.3l0,0V149H-57.3z"/>
		<path d="M-36.8,145.6c-0.3,1.2-0.7,2-1.4,2.7c-0.7,0.7-1.5,0.9-2.7,0.9c-1.4,0-2.4-0.5-3.2-1.5c-0.8-1-1.2-2.5-1.2-4.4
			c0-1.9,0.4-3.3,1.2-4.4c0.8-1,1.9-1.6,3.3-1.6c1,0,1.9,0.3,2.5,0.9c0.7,0.6,1.1,1.4,1.4,2.5l-1.2,0.4c-0.2-0.9-0.6-1.5-1-2
			c-0.4-0.4-1.1-0.7-1.9-0.7c-0.9,0-1.6,0.4-2.2,1.2c-0.6,0.8-0.8,2-0.8,3.6s0.3,2.8,0.9,3.6c0.6,0.8,1.4,1.2,2.4,1.2
			c0.4,0,0.8-0.1,1.1-0.2c0.3-0.1,0.6-0.4,0.8-0.6c0.2-0.2,0.4-0.5,0.5-0.9c0.1-0.3,0.3-0.7,0.4-1.1L-36.8,145.6z"/>
		<path d="M-32.5,138.8c0.8-1,1.9-1.5,3.3-1.5c1.5,0,2.5,0.5,3.3,1.5c0.8,1,1.2,2.5,1.2,4.4c0,1.9-0.4,3.4-1.2,4.4s-1.9,1.5-3.3,1.5
			c-1.5,0-2.5-0.5-3.3-1.5c-0.8-1-1.2-2.5-1.2-4.4C-33.7,141.3-33.3,139.9-32.5,138.8z M-31.6,146.9c0.6,0.8,1.4,1.2,2.4,1.2
			c1,0,1.8-0.4,2.4-1.2s0.9-2,0.9-3.6c0-1.6-0.3-2.8-0.9-3.6c-0.6-0.8-1.4-1.2-2.4-1.2c-1,0-1.8,0.4-2.4,1.2c-0.6,0.8-0.9,2-0.9,3.6
			C-32.4,144.9-32.1,146.1-31.6,146.9z"/>
	</g>
	<g>
		<path d="M-13.9,137.5h4.3c1,0,1.7,0.3,2.3,0.8c0.6,0.6,0.9,1.2,0.9,2c0,0.7-0.1,1.2-0.4,1.7c-0.3,0.4-0.8,0.8-1.5,1l0,0
			c0.7,0.1,1.2,0.5,1.6,1c0.4,0.5,0.6,1.2,0.6,1.9c0,0.4-0.1,0.9-0.2,1.2c-0.1,0.4-0.4,0.7-0.7,1c-0.4,0.3-0.8,0.5-1.3,0.7
			c-0.5,0.1-1.2,0.2-2,0.2H-14L-13.9,137.5L-13.9,137.5z M-12.6,142.5h2.3c0.9,0,1.6-0.2,2-0.6c0.4-0.4,0.7-0.9,0.7-1.4
			c0-1.3-0.7-1.9-2.2-1.9h-2.8V142.5z M-12.6,147.9h2.4c1.9,0,2.8-0.7,2.8-2.1c0-0.7-0.3-1.3-0.8-1.7c-0.6-0.4-1.3-0.6-2.2-0.6h-2.2
			L-12.6,147.9L-12.6,147.9z"/>
	</g>
	<g>
		<path d="M0.5,144.2l-3.6-6.7h1.4l2.8,5.3l2.8-5.3h1.4l-3.6,6.7v4.9H0.3v-4.9H0.5z"/>
	</g>
	<g>
		<path d="M22.9,145.6c-0.3,1.2-0.7,2-1.4,2.7c-0.7,0.7-1.5,0.9-2.7,0.9c-1.4,0-2.4-0.5-3.2-1.5s-1.2-2.5-1.2-4.4
			c0-1.9,0.4-3.3,1.2-4.4c0.8-1,1.9-1.6,3.3-1.6c1,0,1.9,0.3,2.5,0.9c0.7,0.6,1.1,1.4,1.4,2.5l-1.2,0.4c-0.2-0.9-0.6-1.5-1-2
			c-0.4-0.4-1.1-0.7-1.9-0.7c-0.9,0-1.6,0.4-2.2,1.2c-0.6,0.8-0.8,2-0.8,3.6s0.3,2.8,0.9,3.6c0.6,0.8,1.4,1.2,2.4,1.2
			c0.4,0,0.8-0.1,1.1-0.2c0.3-0.1,0.6-0.4,0.8-0.6c0.2-0.2,0.4-0.5,0.5-0.9c0.1-0.3,0.3-0.7,0.4-1.1L22.9,145.6z"/>
	</g>
	<g>
		<path d="M34.9,137.5V149h-1.3v-5.5h-5.5v5.5h-1.3v-11.6h1.3v4.9h5.5v-4.9H34.9z"/>
		<path d="M39.9,149v-11.6h3.7c1.2,0,2.2,0.3,2.8,0.8c0.7,0.5,1,1.3,1,2.3c0,0.8-0.2,1.5-0.6,1.9c-0.4,0.5-0.9,0.9-1.7,1.1l2.5,5.5
			h-1.4l-2.3-5.2h-2.7v5.2L39.9,149L39.9,149z M41.2,142.7h2.3c0.9,0,1.6-0.1,2-0.5c0.4-0.4,0.7-0.9,0.7-1.6c0-0.7-0.2-1.2-0.7-1.6
			c-0.4-0.3-1.2-0.4-2-0.4h-2.3C41.2,138.6,41.2,142.7,41.2,142.7z"/>
		<path d="M53.9,137.5V149h-1.3v-11.6H53.9z"/>
		<path d="M64.7,140.4c-0.1-0.6-0.4-1.1-0.9-1.5c-0.4-0.4-1.1-0.6-1.7-0.6c-0.7,0-1.2,0.1-1.6,0.4c-0.4,0.3-0.6,0.7-0.6,1.3
			c0,0.3,0.1,0.5,0.2,0.7c0.1,0.2,0.4,0.4,0.6,0.6c0.3,0.1,0.5,0.3,0.8,0.4c0.3,0.1,0.7,0.3,1.2,0.4c0.6,0.2,1.1,0.4,1.5,0.6
			c0.4,0.1,0.7,0.4,1.1,0.7c0.4,0.3,0.7,0.6,0.8,0.9c0.2,0.4,0.3,0.8,0.3,1.2c0,0.4-0.1,0.9-0.2,1.3s-0.4,0.7-0.7,1.1
			c-0.3,0.4-0.7,0.6-1.2,0.7c-0.5,0.2-1.1,0.3-1.8,0.3c-0.6,0-1.2-0.1-1.6-0.3c-0.4-0.1-0.9-0.4-1.2-0.7c-0.3-0.3-0.6-0.6-0.8-0.9
			c-0.2-0.4-0.4-0.7-0.6-1.1l1.2-0.4c0.3,0.7,0.7,1.2,1.2,1.7c0.5,0.4,1.1,0.7,1.9,0.7c0.8,0,1.5-0.2,1.9-0.6
			c0.4-0.4,0.7-0.9,0.7-1.5c0-0.4-0.1-0.7-0.2-0.9c-0.1-0.2-0.4-0.5-0.7-0.7c-0.3-0.2-0.6-0.4-0.9-0.5c-0.3-0.1-0.7-0.3-1.2-0.5
			c-0.6-0.2-1-0.4-1.4-0.6c-0.4-0.1-0.7-0.4-1-0.6c-0.3-0.2-0.6-0.5-0.8-0.9c-0.2-0.4-0.3-0.7-0.3-1.2c0-0.4,0.1-0.8,0.2-1.2
			c0.1-0.4,0.4-0.7,0.7-0.9c0.3-0.3,0.7-0.5,1.1-0.7c0.4-0.1,0.9-0.2,1.4-0.2c0.9,0,1.7,0.2,2.4,0.7c0.7,0.5,1.2,1.2,1.5,2.1
			L64.7,140.4z"/>
		<path d="M74,138.6V149h-1.3v-10.5h-3.5v-1.1h8.2v1.1H74z"/>
		<path d="M82.8,137.5V149h-1.3v-11.6H82.8z"/>
		<path d="M86.8,149l3.6-11.6h1.9l3.6,11.6h-1.4l-1.1-3.6h-4.1l-1.1,3.6H86.8z M89.5,144.4H93l-1.7-6h-0.1L89.5,144.4z"/>
		<path d="M99.6,149v-11.6h1.8l5.1,8.9h0.1v-8.9h1.2V149h-1.1l-5.9-10.3l0,0V149H99.6z"/>
		<path d="M119.7,137.5v1.1H114v3.9h4v1.1h-4v4.4h6v1.1h-7.3v-11.6H119.7L119.7,137.5z"/>
	</g>
	<g>
		<path d="M136.1,140.4c-0.1-0.6-0.4-1.1-0.9-1.5c-0.4-0.4-1.1-0.6-1.7-0.6s-1.2,0.1-1.6,0.4c-0.4,0.3-0.6,0.7-0.6,1.3
			c0,0.3,0.1,0.5,0.2,0.7c0.1,0.2,0.4,0.4,0.6,0.6c0.3,0.1,0.5,0.3,0.8,0.4s0.7,0.3,1.2,0.4c0.6,0.2,1.1,0.4,1.5,0.6
			c0.4,0.1,0.7,0.4,1.1,0.7c0.4,0.3,0.7,0.6,0.8,0.9c0.2,0.4,0.3,0.8,0.3,1.2c0,0.4-0.1,0.9-0.2,1.3c-0.1,0.4-0.4,0.7-0.7,1.1
			c-0.3,0.3-0.7,0.6-1.2,0.7c-0.5,0.2-1.1,0.3-1.8,0.3c-0.6,0-1.2-0.1-1.6-0.3c-0.4-0.1-0.9-0.4-1.2-0.7c-0.3-0.3-0.6-0.6-0.8-0.9
			c-0.2-0.4-0.4-0.7-0.6-1.1l1.2-0.4c0.3,0.7,0.7,1.2,1.2,1.7s1.1,0.7,1.9,0.7s1.5-0.2,1.9-0.6s0.7-0.9,0.7-1.5
			c0-0.4-0.1-0.7-0.2-0.9c-0.1-0.2-0.4-0.5-0.7-0.7c-0.3-0.2-0.6-0.4-0.9-0.5c-0.3-0.1-0.7-0.3-1.2-0.5c-0.6-0.2-1-0.4-1.4-0.6
			c-0.4-0.1-0.7-0.4-1-0.6c-0.3-0.2-0.6-0.5-0.8-0.9c-0.2-0.4-0.3-0.7-0.3-1.2c0-0.4,0.1-0.8,0.2-1.2c0.1-0.4,0.4-0.7,0.7-0.9
			c0.3-0.3,0.7-0.5,1.1-0.7s0.9-0.2,1.4-0.2c0.9,0,1.7,0.2,2.4,0.7c0.7,0.5,1.2,1.2,1.5,2.1L136.1,140.4z"/>
	</g>
	<g>
		<path d="M149.5,145.6c-0.3,1.2-0.7,2-1.4,2.7c-0.7,0.7-1.5,0.9-2.7,0.9c-1.4,0-2.4-0.5-3.2-1.5c-0.8-1-1.2-2.5-1.2-4.4
			c0-1.9,0.4-3.3,1.2-4.4c0.8-1,1.9-1.6,3.3-1.6c1,0,1.9,0.3,2.5,0.9c0.7,0.6,1.1,1.4,1.4,2.5l-1.2,0.4c-0.2-0.9-0.6-1.5-1-2
			c-0.4-0.4-1.1-0.7-1.9-0.7c-0.9,0-1.6,0.4-2.2,1.2c-0.6,0.8-0.8,2-0.8,3.6s0.3,2.8,0.9,3.6c0.6,0.8,1.4,1.2,2.4,1.2
			c0.4,0,0.8-0.1,1.1-0.2c0.3-0.1,0.6-0.4,0.8-0.6c0.2-0.2,0.4-0.5,0.5-0.9c0.1-0.3,0.3-0.7,0.4-1.1L149.5,145.6z"/>
		<path d="M161.6,137.5V149h-1.3v-5.5h-5.5v5.5h-1.3v-11.6h1.3v4.9h5.5v-4.9H161.6z"/>
		<path d="M165.3,149l3.6-11.6h1.9l3.6,11.6h-1.4l-1.1-3.6h-4.1l-1.1,3.6H165.3z M168,144.4h3.5l-1.7-6h-0.1L168,144.4z"/>
		<path d="M179.3,137.5v8.2c0,0.7,0.2,1.3,0.7,1.7c0.5,0.4,1.2,0.7,2,0.7s1.5-0.2,2-0.7c0.5-0.4,0.7-1.1,0.7-1.7v-8.2h1.3v8.1
			c0,1.2-0.4,2-1.1,2.7c-0.7,0.7-1.7,0.9-3,0.9s-2.2-0.3-3-0.9c-0.7-0.7-1.1-1.5-1.1-2.7v-8.1H179.3z"/>
		<path d="M200,149v-10.6h-0.1l-3.3,10.6h-0.9l-3.3-10.6h-0.1V149h-1.2v-11.6h2l3,9.4l0,0l2.9-9.4h2V149H200z"/>
	</g>
	<g>
		<path d="M206.2,137.5h4.3c1,0,1.7,0.3,2.3,0.8c0.6,0.6,0.9,1.2,0.9,2c0,0.7-0.1,1.2-0.4,1.7s-0.8,0.8-1.5,1l0,0
			c0.7,0.1,1.2,0.5,1.6,1c0.4,0.5,0.6,1.2,0.6,1.9c0,0.4-0.1,0.9-0.2,1.2c-0.1,0.4-0.4,0.7-0.7,1c-0.4,0.3-0.8,0.5-1.3,0.7
			c-0.5,0.1-1.2,0.2-2,0.2h-3.6L206.2,137.5L206.2,137.5z M207.5,142.5h2.3c0.9,0,1.6-0.2,2-0.6c0.4-0.4,0.7-0.9,0.7-1.4
			c0-1.3-0.7-1.9-2.2-1.9h-2.8V142.5z M207.5,147.9h2.4c1.9,0,2.8-0.7,2.8-2.1c0-0.7-0.3-1.3-0.8-1.7c-0.6-0.4-1.3-0.6-2.2-0.6h-2.2
			L207.5,147.9L207.5,147.9z"/>
	</g>
	<g>
		<path d="M219.8,137.5v8.2c0,0.7,0.2,1.3,0.7,1.7c0.5,0.4,1.2,0.7,2,0.7c0.9,0,1.5-0.2,2-0.7c0.5-0.4,0.7-1.1,0.7-1.7v-8.2h1.3v8.1
			c0,1.2-0.4,2-1.1,2.7c-0.7,0.7-1.7,0.9-2.9,0.9c-1.2,0-2.2-0.3-2.9-0.9c-0.7-0.7-1.1-1.5-1.1-2.7v-8.1H219.8z"/>
		<path d="M231.6,149v-11.6h3.7c1.2,0,2.2,0.3,2.8,0.8c0.7,0.5,1,1.3,1,2.3c0,0.8-0.2,1.5-0.6,1.9c-0.4,0.5-0.9,0.9-1.7,1.1l2.5,5.5
			H238l-2.3-5.2H233v5.2L231.6,149L231.6,149z M232.9,142.7h2.3c0.9,0,1.6-0.1,2-0.5c0.4-0.4,0.7-0.9,0.7-1.6c0-0.7-0.2-1.2-0.7-1.6
			c-0.4-0.3-1.2-0.4-2-0.4h-2.3V142.7z"/>
		<path d="M251.7,143.5v5.6h-1.1V148l0,0c-0.3,0.4-0.7,0.7-1.2,0.9c-0.5,0.2-1.2,0.3-1.8,0.3c-1.4,0-2.5-0.5-3.3-1.5
			c-0.8-1-1.2-2.5-1.2-4.4c0-2,0.4-3.4,1.2-4.4c0.8-1,1.9-1.5,3.3-1.5c1,0,1.9,0.3,2.6,0.8c0.7,0.5,1.2,1.4,1.6,2.6l-1.2,0.2
			c-0.3-0.9-0.7-1.5-1.2-2c-0.5-0.4-1.1-0.6-1.7-0.6c-0.4,0-0.9,0.1-1.2,0.2c-0.4,0.1-0.7,0.4-1,0.8c-0.3,0.4-0.6,0.9-0.7,1.5
			c-0.1,0.7-0.3,1.4-0.3,2.3c0,0.9,0.1,1.7,0.3,2.3c0.1,0.7,0.4,1.2,0.7,1.5c0.3,0.4,0.7,0.7,1,0.8s0.8,0.2,1.2,0.2
			c0.9,0,1.6-0.2,2-0.7c0.4-0.5,0.7-1.1,0.7-1.8v-0.8h-2.6v-1.1L251.7,143.5L251.7,143.5z"/>
		<path d="M255.3,145.4v-1h4.1v1H255.3z"/>
	</g>
	<g>
		<path d="M272,149v-10.6l0,0l-3.3,10.6h-1l-3.3-10.6h-0.1V149h-1.1v-11.6h2l3,9.4l0,0l2.9-9.4h2V149H272z"/>
	</g>
	<g>
		<path d="M279.6,137.5v8.2c0,0.7,0.2,1.3,0.7,1.7c0.5,0.4,1.2,0.7,2,0.7s1.5-0.2,2-0.7c0.5-0.4,0.7-1.1,0.7-1.7v-8.2h1.3v8.1
			c0,1.2-0.4,2-1.1,2.7c-0.7,0.7-1.7,0.9-2.9,0.9c-1.2,0-2.2-0.3-2.9-0.9c-0.7-0.7-1.1-1.5-1.1-2.7v-8.1H279.6z M280.4,136.7v-1.5
			h1.4v1.5H280.4z M282.9,136.7v-1.5h1.4v1.5H282.9z"/>
		<path d="M291.4,149v-11.6h1.3v10.5h5.5v1.1H291.4z"/>
		<path d="M301.9,149v-11.6h1.3v10.5h5.5v1.1H301.9z"/>
		<path d="M319.5,137.5v1.1h-5.7v3.9h4v1.1h-4v4.4h6v1.1h-7.3v-11.6H319.5L319.5,137.5z"/>
		<path d="M323.8,149v-11.6h3.7c1.2,0,2.2,0.3,2.8,0.8c0.7,0.5,1,1.3,1,2.3c0,0.8-0.2,1.5-0.6,1.9c-0.4,0.5-0.9,0.9-1.7,1.1l2.5,5.5
			h-1.4l-2.3-5.2h-2.8v5.2L323.8,149L323.8,149z M325.1,142.7h2.3c0.9,0,1.6-0.1,2-0.5c0.4-0.4,0.7-0.9,0.7-1.6
			c0-0.7-0.2-1.2-0.7-1.6c-0.4-0.3-1.2-0.4-2-0.4h-2.3V142.7z"/>
	</g>
	<g>
		<rect x="-89.8" y="124.5" width="421.4" height="0.7"/>
	</g>
</g>
</svg>
